<?xml version="1.0" encoding="UTF-8"?><svg id="a" xmlns="http://www.w3.org/2000/svg" width="160.87mm" height="8.82mm" viewBox="0 0 456.01 25"><polygon points="105.36 17.91 93.89 1.71 93.88 1.7 90.97 1.7 90.97 23.31 94.12 23.31 94.12 7.1 105.59 23.29 105.6 23.31 108.51 23.31 108.51 1.7 105.36 1.7 105.36 17.91"/><path d="m120.45,7.2c-4.59,0-7.8,3.39-7.8,8.24s3.21,8.24,7.8,8.24,7.8-3.39,7.8-8.24-3.21-8.24-7.8-8.24Zm4.49,8.24c0,3.25-1.85,5.53-4.49,5.53s-4.49-2.27-4.49-5.53,1.85-5.53,4.49-5.53,4.49,2.27,4.49,5.53Z"/><path d="m135.89,3.17h-3.25v4.41h-2.85v2.62h2.85v8.66c0,2.84,2.06,4.83,5.02,4.83.94,0,2-.23,3.15-.69h.03v-2.8l-.06.03c-.94.5-1.72.75-2.39.75-1.49,0-2.49-1-2.49-2.49v-8.28h4.94v-2.62h-4.94V3.17h0Z"/><path d="m155.3,9.38c-1.21-1.42-2.87-2.18-4.81-2.18-2.12,0-4.04.81-5.4,2.28-1.37,1.47-2.12,3.54-2.12,5.84,0,4.93,3.23,8.37,7.86,8.37,1.71,0,3.43-.41,5.12-1.22h.02v-2.87l-.06.04c-1.58.98-3.17,1.5-4.61,1.5-2.86,0-4.91-1.95-5.12-4.86h10.88v-.04c.07-.44.07-.86.07-1.26,0-2.25-.63-4.18-1.83-5.59h0Zm-4.97.38c2.08,0,3.54,1.74,3.65,4.33h-7.8c.2-2.55,1.9-4.33,4.15-4.33h0Z"/><path d="m76.39,5.81c1.16,0,2.09-.9,2.09-2.06s-.93-2.06-2.09-2.06-2.09.93-2.09,2.06.9,2.06,2.09,2.06"/><rect x="74.77" y="8.26" width="3.16" height="15.04"/><path d="m68.5,23.3v-9.82c0-2.48-1.13-3.46-2.99-3.46-1.16,0-2.24.51-3.13,1.28v12h-3.16v-9.82c0-2.48-1.52-3.46-3.52-3.46-1.1,0-1.97.27-2.63.78v12.51h-3.16v-14.15c1.49-1.19,3.88-1.79,6.12-1.79,2.09,0,3.82.57,4.95,1.73,1.58-1.1,3.37-1.73,5.22-1.73,3.46,0,5.46,1.82,5.46,5.52v10.42h-3.16Z"/><path d="m43.49,2.14v5.73c-1.16-.33-2.27-.51-3.28-.51-4.42,0-7.34,3.01-7.34,8.3s3.43,8.3,8.18,8.3c1.73,0,3.64-.39,5.61-1.13V1.31l-3.16.84h0Zm.03,18.71c-.87.24-1.67.36-2.39.36-3.04,0-4.87-2.09-4.87-5.55,0-3.76,1.61-5.61,4.42-5.61.84,0,1.79.18,2.84.51v10.3h0Z"/><path d="m19.64,16.89h10.89c.15-6.24-2.09-9.52-6.84-9.52-4.36,0-7.49,2.78-7.49,8.18,0,5.79,3.19,8.42,8.03,8.42,1.97,0,4-.54,5.61-1.34v-2.6c-2.18.87-3.52,1.19-5.58,1.19-2.6,0-4.63-1.46-4.63-4.33h.01Zm4.06-6.9c2.63,0,3.88,1.88,3.88,4.42h-7.94c0-2.72,1.67-4.42,4.06-4.42Z"/><path d="m10.15,13.6c2.54-1.07,4.12-3.22,4.12-5.94,0-3.49-2.6-5.97-6.63-5.97H0v21.61h3.16v-9.22h3.73l4.27,9.22h3.73l-4.75-9.7h.01,0Zm-3.46-2.15h-3.52v-7.13h3.52c2.69,0,4.24,1.31,4.24,3.55s-1.55,3.58-4.24,3.58Z"/><path d="m327.08,3.68c-.73-1.61-1.94-2.73-3.52-3.24C322.31.03,320.5,0,318.43,0h-25.58c-2.06,0-3.87.03-5.12.44-1.58.51-2.8,1.63-3.52,3.24-.62,1.37-.67,3.15-.67,5.33v6.97c0,2.18.05,3.96.67,5.33.73,1.61,1.94,2.73,3.52,3.24,1.26.41,3.07.45,5.12.45h25.58c2.06,0,3.86-.03,5.13-.45,1.58-.51,2.8-1.63,3.52-3.24.62-1.36.67-3.15.67-5.33v-6.97c0-2.19-.05-3.97-.67-5.33Zm-1.03,5.01v7.62c0,1.9-.08,3.33-.44,4.16-.54,1.21-1.45,2.08-2.58,2.45-1,.33-2.07.38-4.57.38h-25.63c-2.5,0-3.57-.06-4.57-.38-1.13-.36-2.04-1.23-2.58-2.45-.37-.83-.44-2.27-.44-4.16v-7.62c0-1.9.08-3.33.44-4.16.54-1.22,1.45-2.08,2.58-2.45,1-.32,2.07-.38,4.57-.38h25.63c2.5,0,3.57.06,4.57.38,1.13.36,2.04,1.23,2.58,2.45.37.83.44,2.27.44,4.16Z"/><path d="m296.05,6.89v4.01c.57-.11,1.09-.15,1.63-.15,2.88,0,4.84,1.87,4.84,4.62s-2.22,4.88-5.4,4.88c-1.15,0-2.35-.28-3.49-.85v-2.16c1.11.74,2.22,1.11,3.29,1.11,1.96,0,3.33-1.24,3.33-2.99s-1.33-2.92-3.29-2.92c-.96,0-1.94.13-2.9.41v-7.87h7.71v1.9h-5.73.01Z"/><path d="m312.63,20.25c-4.34,0-7.41-3.23-7.41-7.76s3.05-7.76,7.36-7.76c1.53,0,3.03.41,4.49,1.2v2.14c-1.42-.96-2.83-1.48-4.21-1.48-3.16,0-5.38,2.44-5.38,5.91s2.18,5.9,5.27,5.9c.92,0,1.85-.24,2.77-.63v-3.94h-3.42v-1.7h5.56v6.89c-1.66.81-3.36,1.24-5.03,1.24h0Z"/><path d="m262.46,14.39v-6.11h1.95v6.11h6.11v1.95h-6.11v6.11h-1.95v-6.11h-6.11v-1.95s6.11,0,6.11,0Z"/><path d="m216.6,1.69c4.24,0,7.29,2.73,7.29,6.66s-3.05,6.66-7.29,6.66h-4.18v8.29h-2.51V1.69h6.69Zm-.38,11.28c2.98,0,5.06-1.85,5.06-4.62s-2.07-4.62-5.06-4.62h-3.8v9.24h3.8Z"/><path d="m230.14,7.59v1.88c1.23-1.44,2.8-2.26,4.34-2.26.5,0,1.01.06,1.54.22v2.26c-.53-.16-1.1-.25-1.67-.25-1.48,0-3.02.85-4.21,2.45v11.4h-2.48V7.59h2.48Z"/><path d="m245.38,7.22c4.43,0,7.57,3.39,7.57,8.23s-3.14,8.23-7.57,8.23-7.57-3.39-7.57-8.23,3.11-8.23,7.57-8.23Zm0,14.39c2.92,0,5-2.54,5-6.16s-2.07-6.16-5-6.16-5.03,2.54-5.03,6.16,2.07,6.16,5.03,6.16Z"/><path d="m167.45,8.3v-2.95l6.47-3.64h2.2v21.61h-3.24V5.19l-5.43,3.11h0Z" style="fill:#e50012;"/><path d="m188.66,11.06c2.64,0,4.49-1.51,4.49-3.68,0-1.98-1.6-3.39-3.9-3.39-1.6,0-3.3.57-4.96,1.57v-2.95c1.76-.85,3.55-1.29,5.31-1.29,4.02,0,6.79,2.36,6.79,5.78,0,2.32-1.38,4.3-3.61,5.06,2.51.85,4.12,2.95,4.12,5.53,0,3.52-3.05,6-7.48,6-1.85,0-3.77-.47-5.62-1.41v-3.02c1.73,1.16,3.55,1.76,5.25,1.76,2.67,0,4.56-1.51,4.56-3.61,0-2.26-1.95-3.8-4.74-3.8h-1.23v-2.54h1.04-.02Z" style="fill:#e50012;"/></svg>